<?xml version="1.0" standalone="no"?>
<!DOCTYPE svg PUBLIC "-//W3C//DTD SVG 20010904//EN"
 "http://www.w3.org/TR/2001/REC-SVG-20010904/DTD/svg10.dtd">
<svg version="1.0" xmlns="http://www.w3.org/2000/svg"
 width="512.000000pt" height="512.000000pt" viewBox="0 0 512.000000 512.000000"
 preserveAspectRatio="xMidYMid meet">

<g transform="translate(0.000000,512.000000) scale(0.100000,-0.100000)"
fill="#000000" stroke="none">
<path d="M590 4522 c-114 -56 -151 -246 -151 -766 -1 -384 26 -657 86 -882
l23 -90 -33 -101 c-99 -298 -117 -642 -50 -913 8 -30 16 -67 19 -81 6 -38 52
-152 102 -252 246 -501 762 -847 1424 -957 256 -43 844 -43 1100 0 865 143
1461 684 1570 1424 36 239 7 530 -75 779 l-33 101 23 90 c60 225 87 498 86
882 0 488 -32 678 -127 753 -58 46 -137 37 -404 -46 -307 -94 -643 -253 -818
-386 -30 -23 -62 -48 -72 -55 -14 -11 -32 -8 -106 13 -49 14 -150 38 -224 52
-123 25 -156 27 -370 27 -214 0 -247 -2 -370 -27 -74 -14 -175 -38 -224 -52
-74 -21 -92 -24 -106 -13 -10 7 -42 32 -72 55 -215 163 -644 351 -1003 439
-119 29 -149 30 -195 6z m377 -406 c29 -14 134 -76 234 -138 136 -85 205 -135
275 -202 52 -48 97 -98 100 -111 9 -38 -21 -70 -119 -121 -160 -86 -188 -110
-418 -373 -41 -46 -87 -93 -102 -105 l-29 -21 -18 23 c-28 34 -67 164 -90 297
-33 189 -27 570 11 717 16 64 68 75 156 34z m3313 14 c25 -13 36 -57 51 -200
18 -177 14 -422 -11 -565 -23 -133 -62 -263 -90 -297 l-18 -23 -29 21 c-15 12
-61 59 -102 105 -230 263 -252 283 -411 368 -97 53 -129 81 -130 115 0 12 40
58 98 115 80 79 131 117 281 209 254 158 308 181 361 152z m-1338 -148 c81
-17 179 -41 218 -53 39 -12 83 -19 98 -17 27 4 25 0 -44 -104 -251 -375 -431
-925 -461 -1402 l-6 -104 54 -27 c157 -79 353 -242 445 -371 115 -160 164
-344 135 -500 -45 -235 -237 -411 -536 -491 -91 -24 -116 -26 -285 -26 -169 0
-194 2 -285 26 -299 80 -491 256 -536 491 -29 156 20 340 135 500 92 129 288
292 445 371 l54 27 -6 104 c-30 477 -210 1027 -461 1402 -69 103 -71 108 -45
104 15 -2 67 7 116 21 72 21 204 50 373 81 14 2 120 3 235 2 191 -3 223 -6
357 -34z m-1183 -1368 c64 -32 138 -105 176 -176 24 -44 30 -68 33 -141 4 -82
3 -91 -27 -152 -39 -79 -111 -146 -189 -175 -82 -31 -215 -25 -290 14 -116 59
-193 180 -196 304 -2 103 9 135 69 206 62 73 103 101 183 127 87 27 177 25
241 -7z m1876 -4 c46 -18 75 -39 124 -89 80 -83 94 -114 95 -216 0 -70 -4 -90
-31 -147 -37 -78 -92 -137 -165 -174 -75 -39 -208 -45 -290 -14 -78 29 -150
96 -189 175 -30 61 -31 70 -27 152 3 73 9 97 33 141 38 70 111 143 177 177 48
24 61 26 133 22 50 -3 103 -13 140 -27z"/>
<path d="M2393 1966 c-83 -37 -69 -152 29 -242 23 -22 58 -46 77 -54 33 -13
33 -14 28 -65 -6 -55 -42 -139 -74 -167 -30 -28 -105 -58 -145 -58 -66 0 -148
38 -205 97 -57 58 -83 67 -83 30 0 -32 70 -138 108 -166 93 -66 197 -79 287
-37 52 24 118 88 130 125 3 12 10 21 15 21 5 0 12 -9 15 -21 12 -37 78 -101
130 -125 90 -42 194 -29 287 37 38 28 108 134 108 166 0 37 -26 28 -83 -30
-57 -59 -139 -97 -205 -97 -40 0 -115 30 -145 58 -32 28 -68 112 -74 167 -5
51 -5 52 28 65 46 19 116 86 140 132 21 41 25 99 8 130 -25 46 -112 57 -181
21 -24 -12 -32 -11 -55 1 -45 22 -104 27 -140 12z"/>
<path d="M1560 2588 c-103 -104 -133 -315 -65 -466 28 -62 91 -132 120 -132
27 0 94 70 122 128 26 53 28 66 28 177 0 115 -1 123 -32 185 -37 76 -92 140
-121 140 -11 0 -34 -15 -52 -32z"/>
<path d="M3453 2583 c-19 -21 -48 -67 -66 -103 -31 -62 -32 -70 -32 -185 0
-111 2 -124 28 -177 28 -58 95 -128 122 -128 29 0 92 70 120 132 68 151 38
362 -65 466 -42 42 -65 40 -107 -5z"/>
</g>
</svg>
